<svg xmlns="http://www.w3.org/2000/svg" xmlns:xlink="http://www.w3.org/1999/xlink" viewBox="0 0 345.1 247.1"><defs><style>.cls-1{fill:#dadbdc;}.cls-2{fill:#fff;}.cls-3{fill:#c3c5c6;}.cls-4{fill:#353847;}</style><symbol id="Plane2" data-name="Plane2" viewBox="0 0 345.1 247.1"><polygon class="cls-1" points="118.8 44.7 73.8 94.8 178.1 30.5 118.8 44.7"/><polygon class="cls-1" points="118.8 44.7 103 48.6 73.8 94.8 118.8 44.7"/><polygon class="cls-2" points="103 48.6 178.1 30.5 79 0 72.7 2.5 103 48.6"/><polygon class="cls-2" points="114.8 69.5 134.4 98.5 165.7 95.7 178.1 30.5 114.8 69.5"/><polygon class="cls-2" points="165.7 95.7 320.2 78 178.1 30.5 165.7 95.7"/><polygon class="cls-2" points="134.4 98.5 163.4 128.3 234 128.3 165.7 95.7 134.4 98.5"/><polygon class="cls-2" points="165.7 95.7 317.7 90.2 234 128.3 165.7 95.7"/><polygon class="cls-1" points="317.7 90.2 343.1 75.1 345.1 69.8 320.2 78 132.2 95.3 134.4 98.5 136 100.2 317.7 90.2"/><polygon class="cls-3" points="287 66.9 320.2 78 345.1 69.8 287 66.9"/><polygon class="cls-1" points="178.7 128.3 144.5 168.8 234 128.3 178.7 128.3"/><polygon class="cls-1" points="144.5 168.8 178.7 128.3 163.4 128.3 144.5 168.8"/><path class="cls-4" d="M101.4,108.9l-1-2.4,3-1.4,3.2-1.2.9,2.5-3.1,1.2Z"/><path class="cls-4" d="M92.9,113.4l-1.4-2.3.9-.5,2-1.2,3-1.5,1.2,2.3-2.9,1.5-2,1.1Z"/><path class="cls-4" d="M85,118.9l-1.7-2,.8-.7,1.8-1.4,2.8-1.9,1.5,2.1-2.7,1.9-1.8,1.4Z"/><path class="cls-4" d="M78.2,125.6,76.1,124l2.3-2.6,2.4-2.3,1.8,1.9-2.3,2.2Z"/><path class="cls-4" d="M73.7,133.8l-2.5-.8a30.5,30.5,0,0,1,1.3-3.2l1.1-2.1.6-.9,2.2,1.4A32,32,0,0,0,73.7,133.8Z"/><path class="cls-4" d="M72.9,143l-2.6.4c-.1,0-.1-1.8-.2-3.5a6.5,6.5,0,0,1,.2-2.4,4.1,4.1,0,0,0,.1-1.1l2.6.4a3.4,3.4,0,0,1-.1,1,14.9,14.9,0,0,0-.2,2.1C72.7,140.9,72.8,142,72.9,143Z"/><path class="cls-4" d="M76.2,151.6,74,153l-.6-.9-.2-.4-.3-.6-.5-1.2a30.5,30.5,0,0,1-1.3-3.2l2.5-.8a14.8,14.8,0,0,0,1.2,2.9c.1.4.3.8.4,1.1l.2.4.3.4Z"/><path class="cls-4" d="M82.8,157.4l-.8,2.5a17.1,17.1,0,0,1-3.3-1.7,30.7,30.7,0,0,1-2.6-2.5L78,154l2.3,2A12.3,12.3,0,0,0,82.8,157.4Z"/><path class="cls-4" d="M90.5,155.8l1.9,1.8a9.7,9.7,0,0,1-3.1,2.2,5.8,5.8,0,0,1-2.6.6H85.6v-2.6h.8a4.1,4.1,0,0,0,1.8-.5A9.1,9.1,0,0,0,90.5,155.8Z"/><path class="cls-4" d="M91.1,148.4l2.2-1.5a11.1,11.1,0,0,1,1.3,3.6,6.1,6.1,0,0,1,0,2.7l-.3,1.2-2.5-.8a5,5,0,0,0,.2-2.7A10.6,10.6,0,0,0,91.1,148.4Z"/><path class="cls-4" d="M83.9,143.1l1-2.4,1,.4,2.1,1.1,2.9,2-1.7,2a14.4,14.4,0,0,0-2.5-1.8l-1.9-.9Z"/><path class="cls-4" d="M74.7,140.7l.4-2.7,3.3.7,2.3.5,1,.3L81,142l-1-.2-2.1-.6Z"/><path class="cls-4" d="M65.1,140.6l-.2-2.7h6.8v2.7H65.1Z"/><path class="cls-4" d="M55.6,142l-.6-2.5,3.3-.8,3.4-.4.3,2.6-3.2.4Z"/><path class="cls-4" d="M46.3,144.7l-.9-2.5,1-.3,2.2-.7,3.2-1,.7,2.5-3.1,1-2.1.7Z"/><path class="cls-4" d="M37.4,148.6l-1.2-2.4,3.1-1.4,3-1.3,1,2.4-3,1.3Z"/><path class="cls-4" d="M29,153.4l-1.5-2.2,5.8-3.5,1.3,2.3S28.9,153.3,29,153.4Z"/><path class="cls-4" d="M21.2,159.2l-1.7-2s5.2-4.3,5.3-4.1l1.6,2.1C26.3,155.1,21.2,159.2,21.2,159.2Z"/><path class="cls-4" d="M14.3,165.9l-2-1.7s1.1-1.3,2.3-2.5l2.5-2.3,1.7,1.9-2.3,2.2C15.3,164.7,14.3,165.9,14.3,165.9Z"/><path class="cls-4" d="M8.6,173.6l-2.3-1.3.6-.9a12.7,12.7,0,0,1,1.3-1.9l2-2.8,2,1.6L10.4,171l-1.3,1.8Z"/><path class="cls-4" d="M4.5,182.3,2,181.5s2.5-6.4,2.7-6.3l2.4,1.2C6.8,176.3,4.5,182.3,4.5,182.3Z"/><path class="cls-4" d="M2.8,191.6l-2.7-.2.4-3.3a20,20,0,0,1,.4-2.4l.3-1,2.5.6a3.6,3.6,0,0,1-.2,1,15.5,15.5,0,0,0-.4,2.1C2.9,190,2.8,191.6,2.8,191.6Z"/><path class="cls-4" d="M3,201.2l-2.7.3c-.1-1.1-.2-2.3-.2-3.4s-.1-1.7-.1-2.3v-1.1H2.7a3.4,3.4,0,0,0-.1,1,16.2,16.2,0,0,1,.1,2.2C2.8,199.6,3,201.2,3,201.2Z"/><path class="cls-4" d="M4.7,210.7l-2.6.7-.8-3.3-.6-3.3,2.6-.4.6,3.2Z"/><path class="cls-4" d="M7.6,220l-2.5.9s-.5-1.6-1.1-3.1a14.2,14.2,0,0,1-.7-2.2l-.3-1,2.5-.8.3,1,.7,2.1Z"/><path class="cls-4" d="M11.5,228.9,9.2,230s-.8-1.4-1.5-3l-1.3-3,2.4-1.1s.6,1.5,1.3,3Z"/><path class="cls-4" d="M16.3,237.4,14,238.8s-.8-1.5-1.7-2.9L10.7,233l2.3-1.3,1.6,2.9Z"/><path class="cls-4" d="M21.6,245.6l-2.2,1.5-1.8-2.8c-1-1.3-1.9-2.8-1.9-2.8l2.3-1.4,1.7,2.8Z"/></symbol></defs><title>Asset 1</title><g id="Layer_2" data-name="Layer 2"><g id="Layer_1-2" data-name="Layer 1"><use width="345.1" height="247.1" transform="matrix(1, 0, 0, -1, 0, 247.1)" xlink:href="#Plane2"/></g></g></svg>