<?xml version="1.0" encoding="utf-8"?>
<!-- Generator: Adobe Illustrator 22.0.1, SVG Export Plug-In . SVG Version: 6.00 Build 0)  -->
<svg version="1.1" id="Layer_1" xmlns="http://www.w3.org/2000/svg" xmlns:xlink="http://www.w3.org/1999/xlink" x="0px" y="0px"
	 viewBox="0 0 314.1 208.3" style="enable-background:new 0 0 314.1 208.3;" xml:space="preserve">
<style type="text/css">
	.st0{fill:url(#SVGID_1_);}
	.st1{fill:#FFFFFF;}
	.st2{fill:url(#SVGID_2_);}
	.st3{fill:#E0E1E2;}
	.st4{fill:url(#SVGID_3_);}
	.st5{fill:#353847;}
</style>
<linearGradient id="SVGID_1_" gradientUnits="userSpaceOnUse" x1="-7779.0112" y1="8747.9727" x2="-7758.3809" y2="8713.292" gradientTransform="matrix(0.3729 0.7749 0.7749 -0.3729 -3783.8496 9366.127)">
	<stop  offset="0" style="stop-color:#FFFFFF"/>
	<stop  offset="0.91" style="stop-color:#959394"/>
	<stop  offset="1" style="stop-color:#918F90"/>
</linearGradient>
<path class="st0" d="M3.4,3.8L2.9,7.6C25.1,42.7,51.8,74.9,83,105c31.6,18,64.4,33.8,98.2,47.1l2-15.5
	C139.9,110.5,101.5,81,67.4,46.9C45.3,33.8,23.9,19.4,3.4,3.8z"/>
<path class="st1" d="M133.9,105.3c-19.5-13.5-38.3-28-56.2-43.6c34.9,3.9,69.9,5.5,105,4.6c4.2,4.3,6.4,6.4,10.9,10.6
	c-5.3,9-10.7,18-16.2,26.9c-7-3.8-10.5-5.8-17.3-9.8C151.5,98,142.8,101.7,133.9,105.3z"/>
<linearGradient id="SVGID_2_" gradientUnits="userSpaceOnUse" x1="-7722.8228" y1="8800.8164" x2="-7650.7725" y2="8800.8164" gradientTransform="matrix(0.3729 0.7749 0.7749 -0.3729 -3783.8496 9366.127)">
	<stop  offset="0" style="stop-color:#FFFFFF"/>
	<stop  offset="1" style="stop-color:#C5C4C5"/>
</linearGradient>
<path class="st2" d="M133.9,105.3c8.9-3.6,17.6-7.3,26.2-11.3c12.6,16.1,26,31.4,40.3,46l-4,3.9C175,132.1,154.1,119.2,133.9,105.3z
	"/>
<path class="st3" d="M196.4,143.9c-6.1-0.2-9.1-0.3-15.3-0.7c-16.4-12.1-32.1-24.7-47.2-37.9C154.1,119.2,175,132.1,196.4,143.9z"/>
<path class="st3" d="M200.4,140c3.9-2.9,5.8-4.4,9.6-7.4c-17.4-12.2-34-25-49.9-38.6C172.7,110.1,186.2,125.4,200.4,140z"/>
<path class="st1" d="M160.1,94c24.2,13,49.1,24.7,74.6,35c-0.7,1.8-1,2.7-1.7,4.4c-9.2-0.1-13.8-0.3-23-0.8
	C192.6,120.4,176,107.6,160.1,94z"/>
<path class="st1" d="M134.5,113.1c18.2,13.2,37,25.4,56.6,36.9l0.5,9.2c-18.7-7.4-36.9-15.2-54.8-23.8
	C135.7,126.5,135.3,122,134.5,113.1z"/>
<path class="st3" d="M136.8,135.4c20.5,12.8,41.5,24.6,63.5,35.6c11.7,2,23.4,3.8,35.2,5.3l3.2-3.1
	C204,162.9,169.9,150.3,136.8,135.4z"/>
<linearGradient id="SVGID_3_" gradientUnits="userSpaceOnUse" x1="-7689.7627" y1="8782.293" x2="-7590.436" y2="8782.293" gradientTransform="matrix(0.3729 0.7749 0.7749 -0.3729 -3783.8496 9366.127)">
	<stop  offset="0" style="stop-color:#FFFFFF"/>
	<stop  offset="1" style="stop-color:#DAD9DA"/>
</linearGradient>
<path class="st4" d="M136.8,135.4c0.9,3,1.3,4.5,2.3,7.5c17.5,20.9,36.4,40.6,56.5,59c-1.9-11.9-3.6-23.8-5.1-35.8"/>
<path class="st3" d="M162.4,169.4l-1.5,10.9c11.4,7.4,22.9,14.6,34.7,21.6C184.1,191.4,173.1,180.6,162.4,169.4z"/>
<path class="st1" d="M69.6,63.7c14,49.1,35.5,95.4,63.7,140.1c10.1,1.6,20.2,3,30.4,4.1c-0.7-12.8-1.1-25.6-1.3-38.5
	c-8.1-8.6-15.9-17.4-23.3-26.5c-0.8-2.3-1.1-3.4-1.8-5.7c-1.2-9-1.7-13.5-2.6-22.5C112,99.2,90.2,82.1,69.6,63.7z"/>
<path class="st1" d="M94.9,63.6c-10.4-6-20.7-12.3-30.7-18.8c5.2,6.8,7.9,10.2,13.5,16.9L94.9,63.6z"/>
<path class="st1" d="M3.4,3.8C26.7,25,51.6,44.3,77.7,61.7c-14.5-13-28.1-26.4-41.1-40.4C25.3,15.8,14.2,9.9,3.4,3.8z"/>
<path class="st1" d="M3.4,3.8C24,25.4,46.1,45.4,69.6,63.7c-12.8-6.4-25.2-13-37.5-20C21.9,30.7,12.4,17.5,3.4,3.8z"/>
<path class="st5" d="M307.6,75.8h2.2c0,0,0.1-1.2,0.1-2.3v-2.4h-2.2v2.2C307.6,74.7,307.6,75.8,307.6,75.8z"/>
<path class="st5" d="M306.6,82.5l2.3,0.4c0-0.3,0-0.5,0.1-0.8c0.1-0.4,0.2-1,0.3-1.6s0.3-2.3,0.3-2.3l-2.2-0.2
	c-0.1,0.8-0.2,1.5-0.4,2.3c-0.1,0.5-0.2,1-0.2,1.5C306.8,82.1,306.7,82.3,306.6,82.5z"/>
<path class="st5" d="M304.5,89.1l2.3,0.6L307,89c0.3-0.5,0.5-1,0.6-1.6c0.4-1.1,0.7-2.3,0.7-2.3l-2.2-0.4c0,0-0.4,1.1-0.7,2.2
	l-0.6,1.5L304.5,89.1z"/>
<path class="st5" d="M301,95.2l2.1,0.9l1.4-2.1c0.4-0.7,0.8-1.4,1.2-2.2l-2.1-0.7l-1.2,2.1L301,95.2z"/>
<path class="st5" d="M295.5,100.1l1.5,1.4c0.8-0.5,1.6-1,2.3-1.6l1.5-1.2l0.5-0.6l-1.9-1.2C299.6,97.1,295.6,100.2,295.5,100.1z"/>
<path class="st5" d="M287.9,102.7l0.5,1.8c0,0.1,1.5-0.3,3.1-0.6l2-0.7l0.9-0.4l-1.2-1.6l-0.8,0.3c-0.6,0.3-1.2,0.5-1.8,0.6
	C289.8,102.4,288.9,102.6,287.9,102.7z"/>
<path class="st5" d="M279.5,102.5l-0.6,1.8h6.3c0-0.6,0-1.3-0.1-1.9h-4.7L279.5,102.5z"/>
<path class="st5" d="M272.6,99.4l-1.9,1.1c0.7,0.7,1.5,1.3,2.4,1.7c0.9,0.5,1.8,1,2.8,1.3l1-1.7c-0.8-0.3-1.6-0.6-2.4-1
	C273.9,100.4,273.2,100,272.6,99.4z"/>
<path class="st5" d="M271.8,93.9l-2.1-0.9c-0.5,0.8-0.8,1.7-1,2.6c-0.1,0.6,0,1.2,0.2,1.8c0.1,0.3,0.1,0.5,0.2,0.8l2.3-0.5l-0.2-0.6
	c-0.1-0.5-0.2-0.9-0.1-1.4C271.3,95.1,271.5,94.5,271.8,93.9z"/>
<path class="st5" d="M278,92l0.5-1.8c-1.1-0.2-2.2-0.3-3.3-0.2c-0.8,0.1-1.6,0.3-2.3,0.6c-0.3,0.1-0.6,0.3-0.9,0.5l1.3,1.5
	c0.7-0.4,1.4-0.6,2.2-0.7C276.4,91.8,277.2,91.9,278,92z"/>
<path class="st5" d="M284.5,95.5l1.8-1.2l-0.7-0.6l-1.5-1.1c-0.8-0.5-1.7-1-2.6-1.5l-1.2,1.6c0.8,0.4,1.5,0.8,2.2,1.3
	c0.5,0.3,1,0.6,1.4,1L284.5,95.5z"/>
<path class="st5" d="M289.3,101l2.2-0.8l-1.6-2.1l-1.1-1.3l-0.6-0.7l-1.9,1.1l0.5,0.6l1.1,1.3L289.3,101z"/>
<path class="st5" d="M292.4,107.3l2.3-0.5l-0.9-2.3l-0.7-1.5c-0.2-0.2-0.3-0.4-0.4-0.7l-2.2,0.7l0.3,0.7c0.2,0.4,0.5,0.9,0.7,1.4
	S292.4,107.3,292.4,107.3z"/>
<path class="st5" d="M294.1,113.9l2.5-0.2c0,0-0.2-1.2-0.5-2.4l-0.6-2.3l-2.4,0.4l0.6,2.3C293.9,112.4,294.1,113.2,294.1,113.9z"/>
<path class="st5" d="M294.8,120.6h2.5c0-0.2,0-0.5-0.1-0.7c0-0.5,0-1.1-0.1-1.6c-0.1-1.2-0.1-2.4-0.1-2.4l-2.5,0.2
	c0,0,0.1,1.1,0.1,2.3c0.1,0.5,0.1,1,0.1,1.5C294.8,120.2,294.8,120.4,294.8,120.6z"/>
<path class="st5" d="M294.2,127.4l2.5,0.2c0,0,0.2-1.2,0.3-2.3c0.1-0.8,0.2-1.6,0.2-2.4h-2.5c0,0.7-0.1,1.5-0.2,2.2
	C294.4,126.3,294.2,127.4,294.2,127.4z"/>
<path class="st5" d="M292.6,134.1l2.5,0.4c0.5-1.5,0.9-3,1.2-4.6l-2.5-0.3C293.5,131.1,293.1,132.7,292.6,134.1z"/>
<path class="st5" d="M289.9,140.5l2.4,0.7c0.7-1.5,1.4-3,2-4.5l-2.4-0.5C292,136.2,289.9,140.5,289.9,140.5z"/>
<path class="st5" d="M285.9,146.6l2.3,0.9l1.6-2l1.3-2.2l-2.4-0.7l-1.3,2C287,145.3,286.5,146,285.9,146.6z"/>
<path class="st5" d="M280.5,152.1c0.7,0.5,1.4,0.9,2.1,1.2l0.7-0.5l1.3-1.3l2-2l-2.3-1l-1.8,1.9l-1.3,1.2L280.5,152.1z"/>
<path class="st5" d="M273.6,156.7l1.6,1.5c0,0,5.3-3,5.1-3.2l-1.9-1.2C276.9,154.9,275.3,155.8,273.6,156.7z"/>
<path class="st5" d="M265.2,159.8l1,1.7l3.2-0.9c0.8-0.2,1.5-0.6,2.1-0.8l0.9-0.4l-1.4-1.5l-0.9,0.3l-1.9,0.7L265.2,159.8z"/>
<path class="st5" d="M255.8,161.6c0.2,0.6,0.4,1.2,0.6,1.8l3.3-0.5l2.3-0.4l1-0.2l-0.8-1.8l-1,0.2l-2.2,0.4L255.8,161.6z"/>
<path class="st5" d="M246,162.2c0.1,0.8,0.1,1.1,0.2,1.9h3.4l3.4-0.3c-0.1-0.6-0.2-1.2-0.4-1.8l-3.3,0.2L246,162.2z"/>
<path class="st5" d="M236.1,161.8c-0.1,0.8-0.1,1.1-0.2,1.9l3.4,0.2h3.5v-1.8h-3.3L236.1,161.8z"/>
<path class="st5" d="M226.3,160.6l-0.5,1.8l3.4,0.5l3.4,0.4c0.1-0.7,0.2-1.1,0.3-1.8l-3.3-0.4L226.3,160.6z"/>
<path class="st5" d="M216.7,158.7l-0.8,1.7l3.3,0.7l3.3,0.7c0.2-0.6,0.4-1.2,0.6-1.8l-3.2-0.6L216.7,158.7z"/>
<path class="st5" d="M207.3,156.1c-0.3,0.5-0.6,1.1-0.9,1.7l3.1,0.9l3.3,0.9c0.2-0.6,0.5-1.2,0.8-1.7l-3.2-0.9L207.3,156.1z"/>
</svg>
