<svg xmlns="http://www.w3.org/2000/svg" xmlns:xlink="http://www.w3.org/1999/xlink" viewBox="0 0 144.8 31.5"><defs><style>.cls-1{fill:none;}.cls-2{clip-path:url(#clip-path);}.cls-3{fill:#fff;}</style><clipPath id="clip-path"><rect class="cls-1" width="131.9" height="28.83"/></clipPath><symbol id="SitePoint_Logo_" data-name="SitePoint Logo " viewBox="0 0 131.9 28.8"><g class="cls-2"><path class="cls-3" d="M33.8,10.9a2.4,2.4,0,0,1,.9-.8l1.1-.4,1.4-.2h1.1l1.1.3a1.6,1.6,0,0,1,.8.6,1.9,1.9,0,0,1,.3,1,1.3,1.3,0,0,1-.7,1.3,3.3,3.3,0,0,1-1.6.7L36,14l-2.2.6a4.8,4.8,0,0,0-1.6,1.2,2.6,2.6,0,0,0-.7,2,2.6,2.6,0,0,0,.5,1.7,3.4,3.4,0,0,0,1.2,1.2,4.6,4.6,0,0,0,1.6.7l1.8.2,2.2-.2a3.6,3.6,0,0,0,1.7-.7,2.4,2.4,0,0,0,1.3-1.3,4.6,4.6,0,0,0,.5-2H40a2,2,0,0,1-.3,1.1l-.8.7-1,.3H35.8l-.9-.3a1.2,1.2,0,0,1-.7-.5,1.3,1.3,0,0,1,.1-1.8,2.4,2.4,0,0,1,1.1-.6l1.4-.4,1.6-.4,1.7-.4a3.7,3.7,0,0,0,1.4-.7,3.6,3.6,0,0,0,1-1.1,2.2,2.2,0,0,0,.4-1.6,4.6,4.6,0,0,0-.5-2A5.3,5.3,0,0,0,41,8.5l-1.9-.7L37,7.6a7.6,7.6,0,0,0-2.1.3,6.2,6.2,0,0,0-1.9.7A5.7,5.7,0,0,0,31.7,10a5.4,5.4,0,0,0-.5,2.1h2.3a2.7,2.7,0,0,1,.3-1.2"/><rect class="cls-3" x="45.6" y="8" width="2.3" height="13.35"/><path class="cls-3" d="M57.2,21.3v-2H54.5V11a1.3,1.3,0,0,1,.1-.6c0-.1.1-.3.2-.3l.5-.2h1.9v-2H54l-1,.5a1.6,1.6,0,0,0-.6.8,7.7,7.7,0,0,0-.2,1.5v8.6H49.9v2h2.3v4h2.3v-4Z"/><path class="cls-3" d="M69.5,8.8a6.7,6.7,0,0,0-3.9-1.2,8.7,8.7,0,0,0-2.8.5,8,8,0,0,0-2.1,1.5,5.3,5.3,0,0,0-1.2,2.2,9.2,9.2,0,0,0-.5,2.8,8.7,8.7,0,0,0,.5,2.8,6.1,6.1,0,0,0,1.3,2.2,8,8,0,0,0,2.1,1.5,5.8,5.8,0,0,0,2.6.5,4.6,4.6,0,0,0,3-.8,4.9,4.9,0,0,0,2-1.8,6.9,6.9,0,0,0,1-2.5,7.4,7.4,0,0,0,.2-2.6H61.4a10,10,0,0,1,.2-1.6,2.9,2.9,0,0,1,.8-1.4,3.6,3.6,0,0,1,1.4-1,5.8,5.8,0,0,1,1.9-.4,4.8,4.8,0,0,1,2.4.7,3.2,3.2,0,0,1,1.2,2h2.2a5.5,5.5,0,0,0-2-3.4M69,17.3a2.7,2.7,0,0,1-.9,1.2,2,2,0,0,1-1.2.8l-1.5.3a4.5,4.5,0,0,1-1.6-.3,2,2,0,0,1-1.2-.8,2.7,2.7,0,0,1-.9-1.2,3.2,3.2,0,0,1-.3-1.4h7.9a3.2,3.2,0,0,1-.3,1.4"/><path class="cls-3" d="M76.4,21.3V19.5h.1a3.7,3.7,0,0,0,1.7,1.6,6.5,6.5,0,0,0,2.7.5,5.5,5.5,0,0,0,2.8-.6,4.5,4.5,0,0,0,1.9-1.5,4.6,4.6,0,0,0,1.2-2.3,7.5,7.5,0,0,0,.4-2.6,8.4,8.4,0,0,0-.4-2.7,6.5,6.5,0,0,0-1.1-2.2,5,5,0,0,0-2-1.5,6.7,6.7,0,0,0-2.8-.6H79.8L78.6,8l-1.2.6a2.8,2.8,0,0,0-.9,1h-.1V2.8H74.2V21.3Zm8.2-4.8a3,3,0,0,1-.8,1.6,2.8,2.8,0,0,1-1.3,1.1,3.1,3.1,0,0,1-1.9.4,3.4,3.4,0,0,1-2-.4,4.5,4.5,0,0,1-1.3-1.1,5.1,5.1,0,0,1-.7-1.7,5.2,5.2,0,0,1-.3-1.8,6.3,6.3,0,0,1,.3-1.9,5.6,5.6,0,0,1,.7-1.6L78.7,10a4.6,4.6,0,0,1,2-.5,3.9,3.9,0,0,1,3.2,1.6,5.1,5.1,0,0,1,.7,1.7,6.2,6.2,0,0,1,.2,1.9,11,11,0,0,1-.2,1.8"/><path class="cls-3" d="M89.6,17.3a5.8,5.8,0,0,0,1.3,2.3A4.1,4.1,0,0,0,93,21a4.9,4.9,0,0,0,2.9.6,5.5,5.5,0,0,0,2.8-.6,4.1,4.1,0,0,0,2.1-1.4,5.8,5.8,0,0,0,1.3-2.3,7.6,7.6,0,0,0,.5-2.7,9.2,9.2,0,0,0-.5-2.8,7.1,7.1,0,0,0-1.3-2.2,6,6,0,0,0-2.1-1.4,6.7,6.7,0,0,0-2.8-.6,7.2,7.2,0,0,0-2.9.6,6,6,0,0,0-2.1,1.4,7.1,7.1,0,0,0-1.3,2.2,9,9,0,0,0-.4,2.8,8,8,0,0,0,.4,2.7m2.3-4.9a5.1,5.1,0,0,1,.9-1.6,4.2,4.2,0,0,1,1.4-.9,3.8,3.8,0,0,1,3.3,0,4.2,4.2,0,0,1,1.4.9,5.1,5.1,0,0,1,.9,1.6,8.5,8.5,0,0,1,.4,2.2,7.1,7.1,0,0,1-.4,2.1,4.2,4.2,0,0,1-.9,1.6,3.3,3.3,0,0,1-1.4,1,4.5,4.5,0,0,1-1.6.3,4.7,4.7,0,0,1-1.7-.3,3.3,3.3,0,0,1-1.4-1,4.2,4.2,0,0,1-.9-1.6,7.1,7.1,0,0,1-.3-2.1,8.3,8.3,0,0,1,.3-2.2"/><rect class="cls-3" x="105.4" y="8" width="2.3" height="13.35"/><path class="cls-3" d="M113.3,21.3V19.1h0a4.7,4.7,0,0,0,4.5,2.5,4.5,4.5,0,0,0,2.3-.4,3.1,3.1,0,0,0,1.5-1,3.5,3.5,0,0,0,.7-1.5,6.4,6.4,0,0,0,.3-2V7.9h-2.3V17a2.6,2.6,0,0,1-.7,1.9,2.7,2.7,0,0,1-2.1.7,5.7,5.7,0,0,1-1.8-.3,3.5,3.5,0,0,1-1.3-.8,3.7,3.7,0,0,1-.7-1.4,4.1,4.1,0,0,1-.3-1.6V7.9h-2.3V21.3Z"/><path class="cls-3" d="M131.9,21.3v-2h-2.8V11c0-.2.1-.4.1-.6a.3.3,0,0,1,.3-.3h0l.5-.2h1.9v-2h-3.3a3.1,3.1,0,0,0-1,.5,3.5,3.5,0,0,0-.5.8,3.9,3.9,0,0,0-.2,1.5v8.6h-2.4v2h2.4v4h2.2v-4Z"/><path class="cls-3" d="M.8,16.1l2.1-2L9.5,7.9l2.8,2.8a.9.9,0,0,1,0,1.2L9.7,14.2h0L6.9,16.9a1.1,1.1,0,0,0,0,1.3l7.6,7.3L11,28.8,2.9,20.9l-2.1-2a1.9,1.9,0,0,1-.1-2.7H.8"/><path class="cls-3" d="M23.3,12.6l-2.1,2.1-6.6,6.1-2.8-2.7a.9.9,0,0,1,0-1.2l2.6-2.3h0l2.8-2.7a1.1,1.1,0,0,0,0-1.3L9.6,3.3,13.1,0l8.1,7.8,2.1,2.1a2,2,0,0,1,.2,2.6h-.2"/><path class="cls-3" d="M48,24a1.3,1.3,0,1,0-1.3,1.3h0A1.3,1.3,0,0,0,48,24"/><path class="cls-3" d="M107.8,24a1.3,1.3,0,1,0-1.3,1.3,1.3,1.3,0,0,0,1.3-1.3h0"/></g></symbol><symbol id="BG-single" data-name="BG-single" viewBox="0 0 144.8 31.5"><use width="131.9" height="28.83" transform="matrix(1.1, 0, 0, -1.09, 0, 31.5)" xlink:href="#SitePoint_Logo_"/></symbol></defs><title>sitepoint-white</title><g id="Layer_2" data-name="Layer 2"><g id="Layer_1-2" data-name="Layer 1"><use width="144.8" height="31.5" xlink:href="#BG-single"/></g></g></svg>